<?xml version="1.0" encoding="UTF-8"?>
<svg width="850px" height="850px" viewBox="0 0 850 850" version="1.1" xmlns="http://www.w3.org/2000/svg" xmlns:xlink="http://www.w3.org/1999/xlink">
    <!-- Generator: Sketch 42 (36781) - http://www.bohemiancoding.com/sketch -->
    <title>2017Steamworks</title>
    <desc>Created with Sketch.</desc>
    <defs></defs>
    <g id="TemplatesAndDefault" stroke="none" stroke-width="1" fill="none" fill-rule="evenodd">
        <g id="2017Steamworks">
            <path d="M503.878278,253.357065 L448.000001,179.204087 C453.330793,177.172046 458.738557,175.295961 464.217717,173.58141 L491.279176,198.253644 C498.716022,196.500232 506.279673,195.075279 513.953976,193.994937 L530.244576,161.287007 C536.488081,160.877022 542.786677,160.6688 549.133906,160.6688 C555.326349,160.6688 561.472503,160.86699 567.56637,161.257373 L583.783462,193.817719 C591.570633,194.873278 599.24516,196.283452 606.790248,198.031443 L633.720775,173.478581 C645.612363,177.183742 657.168532,181.64951 668.332357,186.818958 L671.701176,222.955796 C678.673415,226.813106 685.444066,230.990287 691.993329,235.467537 L725.872694,222.350052 C735.503694,230.016682 744.625253,238.295985 753.178401,247.128991 L743.302565,281.982408 C748.502216,288.184033 753.409695,294.638919 758.003818,301.325882 L794.372808,301.351144 C800.499363,311.81204 805.97573,322.699948 810.746445,333.959404 L788.916682,362.951635 C791.553748,370.715586 793.823746,378.6491 795.706006,386.731514 L829.628519,399.919913 C831.497162,411.72605 832.638322,423.774233 833.004639,436.017101 L802.05617,455.237957 C801.700848,463.578347 800.941384,471.814102 799.79686,479.926137 L826.796497,504.610686 C824.248947,516.467949 820.961141,528.050305 816.983822,539.307011 L780.960369,546.076891 C777.628901,553.641458 773.937513,561.01167 769.907857,568.165933 L786.233401,601.058175 C783.093031,605.809659 779.81366,610.461212 776.401082,615.00704 L718.419748,538.063212 C729.738907,517.114973 737.39795,493.837647 740.522614,469.119131 L671.020647,469.119131 C670.696566,470.676126 670.343492,472.222489 669.962016,473.75763 L523.178939,278.969908 L523.178939,249.695204 C516.635766,250.58857 510.196519,251.814972 503.878278,253.357065 Z M702.934802,325.537165 L653.289729,375.182238 C661.68782,387.998365 667.792519,402.452517 671.020647,417.961515 L740.426056,417.961515 C735.940159,383.530151 722.652644,351.919278 702.934802,325.537165 Z M667.219821,288.904353 C640.850183,268.154701 609.042578,254.191538 574.336555,249.594016 L574.336555,321.277424 C589.845553,324.505551 604.299706,330.610251 617.115832,339.008341 L667.219821,288.904353 Z" id="Gear" fill="#CC8D35" fill-rule="nonzero"></path>
            <g id="TechnoMancers" transform="translate(18.000000, 167.000000)" fill="#00B3B3">
                <path d="M167,90 L67.5253958,90 L-0.294468702,-7.10542736e-15 L392.435799,0 L460.255664,90 L257,90 L257,523 L167,523 L167,90 Z" id="T"></path>
                <path d="M472,523 L577,523 L277,123 L277,263 L472,523 Z" id="MiddleM"></path>
                <path d="M391,248 L484.75,123 L784.75,523 L679.75,523 L484.75,263 L443.5,318 L391,248 Z" id="RightM"></path>
            </g>
        </g>
    </g>
</svg>